<?xml version="1.0" encoding="utf-8"?>
<!-- Generator: Adobe Illustrator 22.0.0, SVG Export Plug-In . SVG Version: 6.00 Build 0)  -->
<svg version="1.1"
	 id="svg2" xmlns:cc="http://creativecommons.org/ns#" xmlns:dc="http://purl.org/dc/elements/1.1/" xmlns:inkscape="http://www.inkscape.org/namespaces/inkscape" xmlns:rdf="http://www.w3.org/1999/02/22-rdf-syntax-ns#" xmlns:sodipodi="http://sodipodi.sourceforge.net/DTD/sodipodi-0.dtd" xmlns:svg="http://www.w3.org/2000/svg"
	 xmlns="http://www.w3.org/2000/svg" xmlns:xlink="http://www.w3.org/1999/xlink" x="0px" y="0px" viewBox="0 0 100 100"
	 style="enable-background:new 0 0 100 100;" xml:space="preserve">
<style type="text/css">
	.st0{display:none;fill:#FAA634;}
	.st1{fill:#FFFFFF;}
	.st2{opacity:0.3;enable-background:new    ;}
</style>
<g id="layer1" transform="translate(0,-552.36218)">
	<path id="rect2989-174" class="st0" d="M0,552.4v100h100v-100H0z"/>
	<path id="rect2989-9" class="st1" d="M20,569.9c-4.1,0-5,3.4-5,7.5v7.6c-3.1,4.2-5,9.3-5,14.9v10c0,13.8,11.2,25,25,25h30
		c13.8,0,25-11.2,25-25v-10c0-5.6-1.9-10.7-5-14.9v-7.6c0-4.1-0.9-7.5-5-7.5c-3.5,0-8,2.4-9.4,5.7c-1.8-0.4-3.7-0.7-5.6-0.7H35
		c-1.9,0-3.8,0.3-5.6,0.7C28,572.3,23.5,569.9,20,569.9z M35,599.9h30c8.3,0,15,6.7,15,15s-6.7,15-15,15H35c-8.3,0-15-6.7-15-15
		C20,606.6,26.7,599.9,35,599.9z M35,604.9c-4.1,0-5,3.4-5,7.5v2.7c0,4.1,0.9,7.5,5,7.5s5-3.4,5-7.5v-2.7
		C40,608.2,39.1,604.9,35,604.9z M65,604.9c-4.1,0-5,3.4-5,7.5v2.7c0,4.1,0.9,7.5,5,7.5s5-3.4,5-7.5v-2.7
		C70,608.2,69.1,604.9,65,604.9z"/>
	<g id="layer1-9" transform="translate(-549.00515,80.294372)">
	</g>
	<g id="layer1-4" transform="matrix(1.2144212,0,0,1.2144212,-1056.0375,377.09109)">
		<g id="layer1-7" transform="translate(55.728928,-28.316651)">
		</g>
		<g id="g3006" transform="matrix(0.17871094,0,0,0.17871094,245.33672,459.25678)">
		</g>
	</g>
	<g id="g3779">
		<path id="rect2989-1" class="st2" d="M83.3,571L83.3,571c1.4,1.3,1.7,3.7,1.7,6.3v7.6c3.1,4.2,5,9.3,5,14.9v10
			c0,13.8-11.2,25-25,25H35c-6.7,0-12.8-2.6-17.2-6.9l24.4,24.4H100v-64.6L83.3,571z"/>
		<path id="rect2989-17" class="st2" d="M35,599.9c-8.3,0-15,6.7-15,15s6.7,15,15,15h30c8.3,0,15-6.7,15-15s-6.7-15-15-15H35z
			 M35,604.9c4.1,0,5,3.4,5,7.5v2.7c0,4.1-0.9,7.5-5,7.5s-5-3.4-5-7.5v-2.7C30,608.2,30.9,604.9,35,604.9z M65,604.9
			c4.1,0,5,3.4,5,7.5v2.7c0,4.1-0.9,7.5-5,7.5s-5-3.4-5-7.5v-2.7C60,608.2,60.9,604.9,65,604.9z"/>
	</g>
</g>
</svg>
