<?xml version="1.0" encoding="utf-8"?>
<!-- Generator: Adobe Illustrator 22.0.0, SVG Export Plug-In . SVG Version: 6.00 Build 0)  -->
<svg version="1.1"
	 id="svg2" xmlns:cc="http://creativecommons.org/ns#" xmlns:dc="http://purl.org/dc/elements/1.1/" xmlns:inkscape="http://www.inkscape.org/namespaces/inkscape" xmlns:rdf="http://www.w3.org/1999/02/22-rdf-syntax-ns#" xmlns:sodipodi="http://sodipodi.sourceforge.net/DTD/sodipodi-0.dtd" xmlns:svg="http://www.w3.org/2000/svg"
	 xmlns="http://www.w3.org/2000/svg" xmlns:xlink="http://www.w3.org/1999/xlink" x="0px" y="0px" viewBox="0 0 100 100"
	 style="enable-background:new 0 0 100 100;" xml:space="preserve">
<style type="text/css">
	.st0{display:none;fill:#FAA634;}
	.st1{opacity:0.3;enable-background:new    ;}
	.st2{fill:#FFFFFF;}
</style>
<g id="layer1" transform="translate(0,-552.36218)">
	<path id="rect2989-1" class="st0" d="M0,552.4v100h100v-100H0z"/>
	<g id="layer1-9" transform="translate(-549.00515,80.294372)">
	</g>
	<g id="layer1-6" transform="translate(-575.71429,39.999999)">
	</g>
	<g id="layer1-92" transform="matrix(0.99533037,0,0,0.99716768,619.96997,-73.128637)">
		<g id="layer1-9-7" transform="translate(-1068,-236)">
		</g>
	</g>
	<path id="path3003" class="st1" d="M100,652.4H25.3l-11.8-11.8l10.9-50.7l-9.8-9.8l13-13.1l23.3,23.3l3-0.6l3.5,3.5l25.1-0.3
		l17.5,17.5V652.4z"/>
	<path id="rect2989-1-7" class="st2" d="M21.2,564.4c-5.1,0-9.2,4.1-9.2,9.2c0,5.1,4.1,9.2,9.2,9.2s9.2-4.1,9.2-9.2
		C30.4,568.5,26.3,564.4,21.2,564.4z M69.4,588.4L69.4,588.4c-1,0-2,0-3.4,0.1c-2.9,0.1-9.7,3.3-12.1,8.3c0-2.2,0-4.2,0-7.1
		c-3,0-6.8,0-15,0c0,9.1-0.1,41.3-0.1,50.7h15.7c0-5.6,0.1-19.6,0.1-28.3c0-2.9,1.8-9.8,9.1-9.8c6.6,0,8.5,5.6,8.5,9.8
		c0,9.1-0.1,22.1-0.1,28.3H88c0-6.1,0.1-22.7-0.1-33.2c-0.2-12.7-8-18.2-14.9-18.6C71.5,588.4,70.5,588.4,69.4,588.4z M13.3,589.9
		v50.5H29v-50.5H13.3z"/>
</g>
</svg>
