<?xml version="1.0" encoding="utf-8"?>
<!-- Generator: Adobe Illustrator 22.0.0, SVG Export Plug-In . SVG Version: 6.00 Build 0)  -->
<svg version="1.1"
	 id="svg2" xmlns:cc="http://creativecommons.org/ns#" xmlns:dc="http://purl.org/dc/elements/1.1/" xmlns:inkscape="http://www.inkscape.org/namespaces/inkscape" xmlns:rdf="http://www.w3.org/1999/02/22-rdf-syntax-ns#" xmlns:sodipodi="http://sodipodi.sourceforge.net/DTD/sodipodi-0.dtd" xmlns:svg="http://www.w3.org/2000/svg"
	 xmlns="http://www.w3.org/2000/svg" xmlns:xlink="http://www.w3.org/1999/xlink" x="0px" y="0px" viewBox="0 0 100 100"
	 style="enable-background:new 0 0 100 100;" xml:space="preserve">
<style type="text/css">
	.st0{display:none;fill:#FAA634;}
	.st1{opacity:0.3;enable-background:new    ;}
	.st2{fill:#FFFFFF;}
</style>
<path id="rect2989-174" class="st0" d="M0,0v100h100V0H0z"/>
<g>
	<polygon class="st1" points="62.5,10 78.1,42.9 100,64.9 100,47.5 	"/>
	<polygon class="st1" points="100,67.4 76.8,44.2 44.7,26.9 68.7,50.8 35.8,42.7 52.7,59.7 31.2,59.5 44.8,73.1 35,73.1 23.3,61.4 
		16.2,90 26.2,100 100,100 	"/>
	<g>
		<polygon class="st2" points="73.2,82.9 73.2,61.4 80.4,61.4 80.4,90 16.2,90 16.2,61.4 23.3,61.4 23.3,82.9 		"/>
		<path class="st2" d="M31.2,59.5l35,7.3l1.5-7l-35-7.3L31.2,59.5z M35.8,42.7l32.4,15.1l3-6.4L38.8,36.2L35.8,42.7z M44.7,26.9
			l27.5,22.8l4.6-5.5L49.3,21.4L44.7,26.9z M62.5,10l-5.7,4.3l21.3,28.6l5.7-4.3L62.5,10z M30.4,75.7h35.7v-7.1H30.4V75.7z"/>
	</g>
</g>
</svg>
